<svg width="923" height="122" viewBox="0 0 923 122" fill="none" xmlns="http://www.w3.org/2000/svg">
<path d="M639.568 91.48C635.6 91.48 632.432 90.04 630.064 87.16C627.696 84.28 626.512 80.504 626.512 75.832C626.512 70.712 627.696 65.88 630.064 61.336C632.432 56.728 635.568 53.048 639.472 50.296C643.44 47.48 647.632 46.072 652.048 46.072C653.456 46.072 654.384 46.36 654.832 46.936C655.344 47.448 655.76 48.408 656.08 49.816C657.424 49.56 658.832 49.432 660.304 49.432C663.44 49.432 665.008 50.552 665.008 52.792C665.008 54.136 664.528 57.336 663.568 62.392C662.096 69.752 661.36 74.872 661.36 77.752C661.36 78.712 661.584 79.48 662.032 80.056C662.544 80.632 663.184 80.92 663.952 80.92C665.168 80.92 666.64 80.152 668.368 78.616C670.096 77.016 672.432 74.456 675.376 70.936C676.144 70.04 677.008 69.592 677.968 69.592C678.8 69.592 679.44 69.976 679.888 70.744C680.4 71.512 680.656 72.568 680.656 73.912C680.656 76.472 680.048 78.456 678.832 79.864C676.208 83.128 673.424 85.88 670.48 88.12C667.536 90.36 664.688 91.48 661.936 91.48C659.824 91.48 657.872 90.776 656.08 89.368C654.352 87.896 653.04 85.912 652.144 83.416C648.816 88.792 644.624 91.48 639.568 91.48ZM643.024 81.784C644.432 81.784 645.776 80.952 647.056 79.288C648.336 77.624 649.264 75.416 649.84 72.664L653.392 55C650.704 55.064 648.208 56.088 645.904 58.072C643.664 59.992 641.872 62.552 640.528 65.752C639.184 68.952 638.512 72.344 638.512 75.928C638.512 77.912 638.896 79.384 639.664 80.344C640.496 81.304 641.616 81.784 643.024 81.784ZM679.67 91.48C677.238 91.48 675.51 90.2 674.486 87.64C673.526 85.08 673.046 80.984 673.046 75.352C673.046 67.032 674.23 59.128 676.598 51.64C677.174 49.784 678.102 48.44 679.382 47.608C680.726 46.712 682.582 46.264 684.95 46.264C686.23 46.264 687.126 46.424 687.638 46.744C688.15 47.064 688.406 47.672 688.406 48.568C688.406 49.592 687.926 51.896 686.966 55.48C686.326 58.04 685.814 60.28 685.43 62.2C685.046 64.12 684.726 66.488 684.47 69.304C686.582 63.8 688.95 59.32 691.574 55.864C694.198 52.408 696.758 49.944 699.254 48.472C701.814 47 704.15 46.264 706.262 46.264C710.422 46.264 712.502 48.344 712.502 52.504C712.502 55 711.798 59.512 710.39 66.04C709.174 71.608 708.566 75.288 708.566 77.08C708.566 79.64 709.494 80.92 711.35 80.92C712.63 80.92 714.134 80.152 715.862 78.616C717.654 77.016 720.022 74.456 722.966 70.936C723.734 70.04 724.598 69.592 725.558 69.592C726.39 69.592 727.03 69.976 727.478 70.744C727.99 71.512 728.246 72.568 728.246 73.912C728.246 76.472 727.638 78.456 726.422 79.864C723.67 83.256 720.694 86.04 717.494 88.216C714.358 90.392 710.774 91.48 706.742 91.48C703.478 91.48 701.014 90.552 699.35 88.696C697.686 86.776 696.854 84.024 696.854 80.44C696.854 78.648 697.302 75.448 698.198 70.84C699.03 66.808 699.446 64.024 699.446 62.488C699.446 61.464 699.094 60.952 698.39 60.952C697.558 60.952 696.374 62.04 694.838 64.216C693.366 66.328 691.83 69.144 690.23 72.664C688.694 76.184 687.446 79.896 686.486 83.8C685.782 86.808 684.95 88.856 683.99 89.944C683.094 90.968 681.654 91.48 679.67 91.48ZM775.007 69.592C775.839 69.592 776.479 69.976 776.927 70.744C777.439 71.512 777.695 72.568 777.695 73.912C777.695 76.472 777.087 78.456 775.871 79.864C773.247 83.064 770.367 85.816 767.231 88.12C764.095 90.36 760.991 91.48 757.919 91.48C753.055 91.48 749.343 88.632 746.783 82.936C744.095 86.328 741.727 88.6 739.679 89.752C737.695 90.904 735.359 91.48 732.671 91.48C728.767 91.48 725.535 90.04 722.975 87.16C720.479 84.216 719.231 80.408 719.231 75.736C719.231 70.616 720.319 65.88 722.495 61.528C724.671 57.112 727.647 53.528 731.423 50.776C735.263 47.96 739.551 46.296 744.287 45.784C745.503 33.368 747.807 22.776 751.199 14.008C754.655 5.17599 759.167 0.759995 764.735 0.759995C767.487 0.759995 769.759 2.008 771.551 4.504C773.407 7 774.335 10.776 774.335 15.832C774.335 23 772.575 31.384 769.055 40.984C765.535 50.584 760.831 60.44 754.943 70.552C755.199 74.264 755.743 76.92 756.575 78.52C757.471 80.12 758.591 80.92 759.935 80.92C761.663 80.92 763.423 80.152 765.215 78.616C767.007 77.08 769.407 74.52 772.415 70.936C773.183 70.04 774.047 69.592 775.007 69.592ZM763.679 10.168C762.463 10.168 761.247 12.344 760.031 16.696C758.815 20.984 757.759 26.616 756.863 33.592C756.031 40.568 755.423 47.864 755.039 55.48C762.207 39.864 765.791 27.32 765.791 17.848C765.791 15.416 765.567 13.528 765.119 12.184C764.735 10.84 764.255 10.168 763.679 10.168ZM736.031 81.784C737.247 81.784 738.463 81.304 739.679 80.344C740.895 79.32 742.431 77.464 744.287 74.776C743.647 71.32 743.327 67.448 743.327 63.16C743.327 61.624 743.391 59.128 743.519 55.672C739.999 56.76 737.055 59.128 734.687 62.776C732.383 66.36 731.231 70.36 731.231 74.776C731.231 79.448 732.831 81.784 736.031 81.784ZM786.109 91.48C782.333 91.48 779.101 90.552 776.413 88.696C773.789 86.776 771.805 84.28 770.461 81.208C769.117 78.136 768.445 74.84 768.445 71.32C768.445 66.456 769.341 62.136 771.133 58.36C772.989 54.52 775.485 51.544 778.621 49.432C781.757 47.256 785.277 46.168 789.181 46.168C792.957 46.168 796.189 47.128 798.877 49.048C801.565 50.904 803.581 53.368 804.925 56.44C806.269 59.512 806.941 62.808 806.941 66.328C806.941 71.192 806.013 75.544 804.157 79.384C802.301 83.16 799.773 86.136 796.573 88.312C793.437 90.424 789.949 91.48 786.109 91.48ZM787.165 81.112C789.341 81.112 791.165 79.928 792.637 77.56C794.173 75.192 794.941 71.736 794.941 67.192C794.941 63.672 794.301 61.016 793.021 59.224C791.741 57.432 790.205 56.536 788.413 56.536C786.109 56.536 784.189 57.72 782.653 60.088C781.181 62.392 780.445 65.848 780.445 70.456C780.445 74.104 781.085 76.792 782.365 78.52C783.645 80.248 785.245 81.112 787.165 81.112Z" fill="white"/>
<path d="M914.812 78.9965C914.812 81.9405 914.396 84.6285 913.564 87.0605C912.732 89.4285 911.228 91.4765 909.052 93.2045C906.876 94.8685 903.868 96.1805 900.028 97.1405C896.252 98.1005 891.42 98.5805 885.532 98.5805C879.644 98.5805 874.78 98.1005 870.94 97.1405C867.164 96.1805 864.188 94.8685 862.012 93.2045C859.836 91.4765 858.3 89.4285 857.404 87.0605C856.572 84.6285 856.156 81.9405 856.156 78.9965V46.2605C856.156 43.3165 856.572 40.6605 857.404 38.2925C858.3 35.8605 859.836 33.7805 862.012 32.0525C864.188 30.3245 867.164 28.9805 870.94 28.0205C874.78 27.0605 879.644 26.5805 885.532 26.5805C891.42 26.5805 896.252 27.0605 900.028 28.0205C903.868 28.9805 906.876 30.3245 909.052 32.0525C911.228 33.7805 912.732 35.8605 913.564 38.2925C914.396 40.6605 914.812 43.3165 914.812 46.2605V78.9965ZM877.852 75.5405C877.852 76.8205 878.3 77.9085 879.196 78.8045C880.156 79.6365 882.268 80.0525 885.532 80.0525C888.796 80.0525 890.876 79.6365 891.772 78.8045C892.732 77.9085 893.212 76.8205 893.212 75.5405V49.7165C893.212 48.5005 892.732 47.4765 891.772 46.6445C890.876 45.7485 888.796 45.3005 885.532 45.3005C882.268 45.3005 880.156 45.7485 879.196 46.6445C878.3 47.4765 877.852 48.5005 877.852 49.7165V75.5405Z" fill="#4EA8DE"/>
<path d="M383.985 92.0172C377.713 92.0172 372.817 90.2572 369.297 86.7372C365.841 83.1532 364.113 78.4492 364.113 72.6252C364.113 67.4412 365.137 62.8972 367.185 58.9932C369.233 55.0892 371.889 52.0812 375.153 49.9692C378.417 47.8572 381.841 46.8012 385.425 46.8012C388.945 46.8012 391.665 47.8572 393.585 49.9692C395.569 52.0172 396.561 54.6732 396.561 57.9372C396.561 60.6252 395.953 62.8972 394.737 64.7532C393.585 66.6092 392.049 67.5372 390.129 67.5372C388.913 67.5372 387.921 67.2492 387.153 66.6732C386.449 66.0972 386.097 65.2972 386.097 64.2732C386.097 63.8252 386.161 63.3132 386.289 62.7372C386.417 62.1612 386.513 61.7452 386.577 61.4892C386.897 60.5292 387.057 59.6332 387.057 58.8012C387.057 57.9692 386.833 57.3292 386.385 56.8812C386.001 56.4332 385.425 56.2092 384.657 56.2092C383.185 56.2092 381.809 56.8812 380.529 58.2252C379.249 59.5052 378.225 61.2652 377.457 63.5052C376.689 65.7452 376.305 68.2092 376.305 70.8972C376.305 78.3212 379.537 82.0332 386.001 82.0332C388.625 82.0332 391.441 81.1692 394.449 79.4412C397.521 77.6492 400.529 74.9932 403.473 71.4732C404.241 70.5772 405.105 70.1292 406.065 70.1292C406.897 70.1292 407.537 70.5132 407.985 71.2812C408.497 72.0492 408.753 73.1052 408.753 74.4492C408.753 76.8812 408.145 78.8652 406.929 80.4012C403.921 84.1132 400.305 86.9932 396.081 89.0412C391.921 91.0252 387.889 92.0172 383.985 92.0172ZM449.953 62.0652C450.785 62.0652 451.425 62.4812 451.873 63.3132C452.321 64.1452 452.545 65.2012 452.545 66.4812C452.545 69.5532 451.617 71.3772 449.761 71.9532C445.921 73.2972 441.697 74.0652 437.089 74.2572C435.873 79.6332 433.473 83.9532 429.889 87.2172C426.305 90.4172 422.241 92.0172 417.697 92.0172C413.857 92.0172 410.561 91.0892 407.809 89.2332C405.121 87.3772 403.073 84.9132 401.665 81.8412C400.257 78.7692 399.553 75.4412 399.553 71.8572C399.553 66.9932 400.481 62.6732 402.337 58.8972C404.193 55.0572 406.753 52.0812 410.017 49.9692C413.281 47.7932 416.897 46.7052 420.865 46.7052C425.729 46.7052 429.633 48.4012 432.577 51.7932C435.585 55.1212 437.345 59.2492 437.857 64.1772C440.865 63.9852 444.449 63.3452 448.609 62.2572C449.121 62.1292 449.569 62.0652 449.953 62.0652ZM418.465 81.8412C420.513 81.8412 422.273 81.0092 423.745 79.3452C425.281 77.6812 426.305 75.2812 426.817 72.1452C424.833 70.8012 423.297 69.0412 422.209 66.8652C421.185 64.6892 420.673 62.3852 420.673 59.9532C420.673 58.9292 420.769 57.9052 420.961 56.8812H420.481C417.921 56.8812 415.777 58.1292 414.049 60.6252C412.385 63.0572 411.553 66.5132 411.553 70.9932C411.553 74.5132 412.225 77.2012 413.569 79.0572C414.977 80.9132 416.609 81.8412 418.465 81.8412ZM451.121 92.0172C448.689 92.0172 446.961 90.7372 445.937 88.1772C444.977 85.6172 444.497 81.5212 444.497 75.8892C444.497 67.5692 445.681 59.6652 448.049 52.1772C448.625 50.3212 449.553 48.9772 450.833 48.1452C452.177 47.2492 454.033 46.8012 456.401 46.8012C457.681 46.8012 458.577 46.9612 459.089 47.2812C459.601 47.6012 459.857 48.2092 459.857 49.1052C459.857 50.1292 459.377 52.4332 458.417 56.0172C457.777 58.5772 457.265 60.8172 456.881 62.7372C456.497 64.5932 456.177 66.9292 455.921 69.7452C457.649 64.7532 459.697 60.5292 462.065 57.0732C464.497 53.6172 466.961 51.0572 469.457 49.3932C472.017 47.6652 474.417 46.8012 476.657 46.8012C478.897 46.8012 480.465 47.3132 481.361 48.3372C482.321 49.3612 482.801 50.9292 482.801 53.0412C482.801 55.0892 482.193 58.8012 480.977 64.1772C480.465 66.4812 480.113 68.2092 479.921 69.3612C483.121 61.4892 486.673 55.7612 490.577 52.1772C494.481 48.5932 498.129 46.8012 501.521 46.8012C505.681 46.8012 507.761 48.8812 507.761 53.0412C507.761 55.5372 507.057 60.0492 505.649 66.5772C504.433 72.1452 503.825 75.8252 503.825 77.6172C503.825 80.1772 504.753 81.4572 506.609 81.4572C507.889 81.4572 509.393 80.6892 511.121 79.1532C512.913 77.5532 515.281 74.9932 518.225 71.4732C518.993 70.5772 519.857 70.1292 520.817 70.1292C521.649 70.1292 522.289 70.5132 522.737 71.2812C523.249 72.0492 523.505 73.1052 523.505 74.4492C523.505 77.0092 522.897 78.9932 521.681 80.4012C518.929 83.7932 515.953 86.5772 512.753 88.7532C509.617 90.9292 506.033 92.0172 502.001 92.0172C498.737 92.0172 496.273 91.0892 494.609 89.2332C492.945 87.3132 492.113 84.5612 492.113 80.9772C492.113 79.1852 492.561 75.9852 493.457 71.3772C494.289 67.3452 494.705 64.5612 494.705 63.0252C494.705 62.0012 494.353 61.4892 493.649 61.4892C492.817 61.4892 491.633 62.5772 490.097 64.7532C488.561 66.8652 487.025 69.6812 485.489 73.2012C483.953 76.7212 482.705 80.4332 481.745 84.3372C481.041 87.4092 480.209 89.4572 479.249 90.4812C478.353 91.5052 476.881 92.0172 474.833 92.0172C472.721 92.0172 471.121 91.0252 470.033 89.0412C469.009 86.9932 468.497 84.5292 468.497 81.6492C468.497 79.2172 468.817 75.6972 469.457 71.0892C469.969 66.9932 470.225 64.3052 470.225 63.0252C470.225 62.0012 469.873 61.4892 469.169 61.4892C468.209 61.4892 466.993 62.6412 465.521 64.9452C464.049 67.2492 462.609 70.1932 461.201 73.7772C459.857 77.3612 458.769 80.8812 457.937 84.3372C457.233 87.3452 456.401 89.3932 455.441 90.4812C454.545 91.5052 453.105 92.0172 451.121 92.0172ZM550.111 73.0092C550.943 73.0092 551.583 73.3932 552.031 74.1612C552.543 74.9292 552.799 75.9852 552.799 77.3292C552.799 79.6332 552.255 81.6172 551.167 83.2812C549.375 86.0332 547.007 88.1772 544.063 89.7132C541.183 91.2492 537.727 92.0172 533.695 92.0172C527.551 92.0172 522.783 90.1932 519.391 86.5452C515.999 82.8332 514.303 77.8412 514.303 71.5692C514.303 67.1532 515.231 63.0572 517.087 59.2812C518.943 55.4412 521.503 52.4012 524.767 50.1612C528.095 47.9212 531.839 46.8012 535.999 46.8012C539.711 46.8012 542.687 47.9212 544.927 50.1612C547.167 52.3372 548.287 55.3132 548.287 59.0892C548.287 63.5052 546.687 67.3132 543.487 70.5132C540.351 73.6492 534.975 76.1452 527.359 78.0012C528.895 80.9452 531.487 82.4172 535.135 82.4172C537.759 82.4172 539.903 81.8092 541.567 80.5932C543.295 79.3772 545.279 77.3292 547.519 74.4492C548.287 73.4892 549.151 73.0092 550.111 73.0092ZM534.367 56.2092C531.999 56.2092 529.983 57.5852 528.319 60.3372C526.719 63.0892 525.919 66.4172 525.919 70.3212V70.5132C529.695 69.6172 532.671 68.2732 534.847 66.4812C537.023 64.6892 538.111 62.6092 538.111 60.2412C538.111 59.0252 537.759 58.0652 537.055 57.3612C536.415 56.5932 535.519 56.2092 534.367 56.2092Z" fill="white"/>
<path d="M52.704 58.3212L49.536 69.4572H56.544C59.872 69.4572 61.536 71.2172 61.536 74.7372C61.536 76.5292 61.088 77.9372 60.192 78.9612C59.36 79.9212 58.144 80.4012 56.544 80.4012H46.368L44.544 86.5452C43.968 88.4012 43.008 89.8412 41.664 90.8652C40.384 91.8252 39.008 92.3052 37.536 92.3052C36.192 92.3052 35.04 91.8892 34.08 91.0572C33.12 90.1612 32.64 88.9452 32.64 87.4092C32.64 86.7692 32.736 86.0652 32.928 85.2972L34.368 80.4012H23.136L21.312 86.5452C20.736 88.4012 19.776 89.8412 18.432 90.8652C17.152 91.8252 15.776 92.3052 14.304 92.3052C12.96 92.3052 11.808 91.8892 10.848 91.0572C9.888 90.1612 9.408 88.9452 9.408 87.4092C9.408 86.7692 9.504 86.0652 9.696 85.2972L11.136 80.4012H8.352C6.752 80.4012 5.504 79.9212 4.608 78.9612C3.712 77.9372 3.264 76.5292 3.264 74.7372C3.264 73.0092 3.712 71.6972 4.608 70.8012C5.504 69.9052 6.752 69.4572 8.352 69.4572H14.304L17.568 58.3212H12.192C10.592 58.3212 9.344 57.8412 8.448 56.8812C7.552 55.8572 7.104 54.4492 7.104 52.6572C7.104 50.9292 7.552 49.6172 8.448 48.7212C9.344 47.8252 10.592 47.3772 12.192 47.3772H20.736L22.56 41.0412C23.072 39.1852 23.968 37.8092 25.248 36.9132C26.592 35.9532 28 35.4732 29.472 35.4732C30.944 35.4732 32.16 35.8892 33.12 36.7212C34.144 37.4892 34.656 38.5452 34.656 39.8892C34.656 40.4652 34.56 41.0412 34.368 41.6172L32.736 47.3772H43.968L45.792 41.0412C46.304 39.1852 47.2 37.8092 48.48 36.9132C49.824 35.9532 51.232 35.4732 52.704 35.4732C54.176 35.4732 55.392 35.8892 56.352 36.7212C57.376 37.4892 57.888 38.5452 57.888 39.8892C57.888 40.4652 57.792 41.0412 57.6 41.6172L55.968 47.3772H60.384C63.712 47.3772 65.376 49.1372 65.376 52.6572C65.376 54.4492 64.928 55.8572 64.032 56.8812C63.2 57.8412 61.984 58.3212 60.384 58.3212H52.704ZM40.8 58.3212H29.472L26.304 69.4572H37.536L40.8 58.3212ZM126.355 70.1292C127.187 70.1292 127.827 70.5132 128.275 71.2812C128.787 72.0492 129.043 73.1052 129.043 74.4492C129.043 77.0092 128.435 78.9932 127.219 80.4012C124.595 83.6012 121.715 86.3532 118.579 88.6572C115.443 90.8972 112.339 92.0172 109.267 92.0172C104.403 92.0172 100.691 89.1692 98.1308 83.4732C95.4428 86.8652 93.0748 89.1372 91.0268 90.2892C89.0428 91.4412 86.7068 92.0172 84.0188 92.0172C80.1148 92.0172 76.8828 90.5772 74.3228 87.6972C71.8268 84.7532 70.5788 80.9452 70.5788 76.2732C70.5788 71.1532 71.6668 66.4172 73.8428 62.0652C76.0188 57.6492 78.9948 54.0652 82.7708 51.3132C86.6108 48.4972 90.8988 46.8332 95.6348 46.3212C96.8508 33.9052 99.1548 23.3132 102.547 14.5452C106.003 5.71319 110.515 1.29719 116.083 1.29719C118.835 1.29719 121.107 2.54519 122.899 5.04119C124.755 7.53719 125.683 11.3132 125.683 16.3692C125.683 23.5372 123.923 31.9212 120.403 41.5212C116.883 51.1212 112.179 60.9772 106.291 71.0892C106.547 74.8012 107.091 77.4572 107.923 79.0572C108.819 80.6572 109.939 81.4572 111.283 81.4572C113.011 81.4572 114.771 80.6892 116.563 79.1532C118.355 77.6172 120.755 75.0572 123.763 71.4732C124.531 70.5772 125.395 70.1292 126.355 70.1292ZM115.027 10.7052C113.811 10.7052 112.595 12.8812 111.379 17.2332C110.163 21.5212 109.107 27.1532 108.211 34.1292C107.379 41.1052 106.771 48.4012 106.387 56.0172C113.555 40.4012 117.139 27.8572 117.139 18.3852C117.139 15.9532 116.915 14.0652 116.467 12.7212C116.083 11.3772 115.603 10.7052 115.027 10.7052ZM87.3788 82.3212C88.5948 82.3212 89.8108 81.8412 91.0268 80.8812C92.2428 79.8572 93.7788 78.0012 95.6348 75.3132C94.9948 71.8572 94.6748 67.9852 94.6748 63.6972C94.6748 62.1612 94.7388 59.6652 94.8668 56.2092C91.3468 57.2972 88.4028 59.6652 86.0348 63.3132C83.7308 66.8972 82.5788 70.8972 82.5788 75.3132C82.5788 79.9852 84.1788 82.3212 87.3788 82.3212ZM164.049 70.1292C164.881 70.1292 165.521 70.5132 165.969 71.2812C166.481 72.0492 166.737 73.1052 166.737 74.4492C166.737 77.0092 166.129 78.9932 164.913 80.4012C162.545 83.2812 159.185 85.9372 154.833 88.3692C150.545 90.8012 145.937 92.0172 141.009 92.0172C134.289 92.0172 129.073 90.1932 125.361 86.5452C121.649 82.8972 119.793 77.9052 119.793 71.5692C119.793 67.1532 120.721 63.0572 122.577 59.2812C124.433 55.4412 126.993 52.4012 130.257 50.1612C133.585 47.9212 137.329 46.8012 141.489 46.8012C145.201 46.8012 148.177 47.9212 150.417 50.1612C152.657 52.3372 153.777 55.3132 153.777 59.0892C153.777 63.5052 152.177 67.3132 148.977 70.5132C145.841 73.6492 140.497 76.1452 132.945 78.0012C134.545 80.9452 137.585 82.4172 142.065 82.4172C144.945 82.4172 148.209 81.4252 151.857 79.4412C155.569 77.3932 158.769 74.7372 161.457 71.4732C162.225 70.5772 163.089 70.1292 164.049 70.1292ZM139.857 56.2092C137.489 56.2092 135.473 57.5852 133.809 60.3372C132.209 63.0892 131.409 66.4172 131.409 70.3212V70.5132C135.185 69.6172 138.161 68.2732 140.337 66.4812C142.513 64.6892 143.601 62.6092 143.601 60.2412C143.601 59.0252 143.249 58.0652 142.545 57.3612C141.905 56.5932 141.009 56.2092 139.857 56.2092ZM224.777 70.1292C225.609 70.1292 226.249 70.5132 226.697 71.2812C227.209 72.0492 227.465 73.1052 227.465 74.4492C227.465 77.0092 226.857 78.9932 225.641 80.4012C223.017 83.6012 220.105 86.3532 216.905 88.6572C213.769 90.8972 210.601 92.0172 207.401 92.0172C203.241 92.0172 200.201 90.5452 198.281 87.6012C196.425 84.6572 195.497 80.7532 195.497 75.8892C195.497 73.3932 195.753 70.3212 196.265 66.6732C196.841 63.0252 197.577 59.4412 198.473 55.9212C192.073 55.9212 184.489 56.2092 175.721 56.7852C174.313 65.7452 173.609 74.0972 173.609 81.8412C173.609 87.7932 173.929 94.0012 174.569 100.465C175.273 106.993 176.297 110.257 177.641 110.257C178.281 110.257 178.953 109.137 179.656 106.897C180.361 104.657 180.937 101.585 181.385 97.6812C181.833 93.7772 182.057 89.4572 182.057 84.7212C182.057 79.5372 181.769 73.9372 181.193 67.9212C181.065 66.1292 181.353 64.8172 182.057 63.9852C182.825 63.0892 183.945 62.6412 185.417 62.6412C186.761 62.6412 187.753 62.9932 188.393 63.6972C189.033 64.4012 189.417 65.5852 189.545 67.2492C189.865 71.9212 190.025 77.4892 190.025 83.9532C190.025 94.3852 188.745 103.313 186.185 110.737C183.689 118.161 179.785 121.873 174.473 121.873C169.929 121.873 166.665 118.577 164.681 111.985C162.697 105.457 161.705 95.6332 161.705 82.5132C161.705 74.7692 162.313 66.4812 163.529 57.6492C163.081 57.7132 162.505 57.7452 161.801 57.7452C159.817 57.7452 158.473 57.3932 157.769 56.6892C157.129 55.9852 156.809 54.8972 156.809 53.4252C156.809 51.8252 157.225 50.5452 158.057 49.5852C158.953 48.6252 160.617 48.0492 163.049 47.8572C163.497 47.7932 164.201 47.7612 165.161 47.7612C166.889 39.1212 169.097 31.2812 171.785 24.2412C174.473 17.2012 177.545 11.6332 181.001 7.53719C184.457 3.37719 188.105 1.29719 191.945 1.29719C194.953 1.29719 197.257 2.48119 198.857 4.84919C200.521 7.15319 201.353 10.1292 201.353 13.7772C201.353 26.6412 196.169 37.5852 185.801 46.6092C193.609 46.2892 199.913 46.1292 204.713 46.1292C206.505 46.1292 207.977 46.4812 209.129 47.1852C210.281 47.8252 210.857 49.1052 210.857 51.0252C210.857 52.3052 210.633 54.2572 210.185 56.8812C209.801 59.5052 209.353 62.1292 208.841 64.7532C207.689 70.1932 207.113 73.7772 207.113 75.5052C207.113 77.4252 207.369 78.8972 207.881 79.9212C208.393 80.9452 209.257 81.4572 210.473 81.4572C211.561 81.4572 212.937 80.7212 214.601 79.2492C216.329 77.7132 218.857 75.1212 222.185 71.4732C222.953 70.5772 223.817 70.1292 224.777 70.1292ZM190.121 10.5132C188.585 10.5132 186.633 13.8412 184.265 20.4972C181.897 27.1532 179.753 35.2172 177.833 44.6892C181.033 42.4492 183.689 39.6652 185.801 36.3372C187.977 33.0092 189.577 29.5852 190.601 26.0652C191.689 22.4812 192.233 19.1852 192.233 16.1772C192.233 12.4012 191.529 10.5132 190.121 10.5132ZM208.745 40.4652C206.057 40.4652 204.041 39.8572 202.697 38.6412C201.353 37.3612 200.681 35.6012 200.681 33.3612C200.681 31.1212 201.545 29.2652 203.273 27.7932C205.065 26.2572 207.273 25.4892 209.897 25.4892C212.265 25.4892 214.185 26.0652 215.657 27.2172C217.129 28.3692 217.865 30.0012 217.865 32.1132C217.865 34.6732 217.033 36.7212 215.369 38.2572C213.705 39.7292 211.497 40.4652 208.745 40.4652ZM226.487 92.0172C224.055 92.0172 222.327 90.7372 221.303 88.1772C220.343 85.6172 219.863 81.5212 219.863 75.8892C219.863 67.5692 221.047 59.6652 223.415 52.1772C223.991 50.3212 224.919 48.9772 226.199 48.1452C227.543 47.2492 229.399 46.8012 231.767 46.8012C233.047 46.8012 233.943 46.9612 234.455 47.2812C234.967 47.6012 235.223 48.2092 235.223 49.1052C235.223 50.1292 234.743 52.4332 233.783 56.0172C233.143 58.5772 232.631 60.8172 232.247 62.7372C231.863 64.6572 231.543 67.0252 231.287 69.8412C233.399 64.3372 235.767 59.8572 238.391 56.4012C241.015 52.9452 243.575 50.4812 246.071 49.0092C248.631 47.5372 250.967 46.8012 253.079 46.8012C257.239 46.8012 259.319 48.8812 259.319 53.0412C259.319 55.5372 258.615 60.0492 257.207 66.5772C255.991 72.1452 255.383 75.8252 255.383 77.6172C255.383 80.1772 256.311 81.4572 258.167 81.4572C259.447 81.4572 260.951 80.6892 262.679 79.1532C264.471 77.5532 266.839 74.9932 269.783 71.4732C270.551 70.5772 271.415 70.1292 272.375 70.1292C273.207 70.1292 273.847 70.5132 274.295 71.2812C274.807 72.0492 275.062 73.1052 275.062 74.4492C275.062 77.0092 274.455 78.9932 273.239 80.4012C270.487 83.7932 267.511 86.5772 264.311 88.7532C261.175 90.9292 257.591 92.0172 253.559 92.0172C250.295 92.0172 247.831 91.0892 246.167 89.2332C244.503 87.3132 243.671 84.5612 243.671 80.9772C243.671 79.1852 244.119 75.9852 245.015 71.3772C245.847 67.3452 246.263 64.5612 246.263 63.0252C246.263 62.0012 245.911 61.4892 245.207 61.4892C244.375 61.4892 243.191 62.5772 241.655 64.7532C240.183 66.8652 238.647 69.6812 237.047 73.2012C235.511 76.7212 234.263 80.4332 233.303 84.3372C232.599 87.3452 231.767 89.3932 230.807 90.4812C229.911 91.5052 228.471 92.0172 226.487 92.0172ZM301.664 73.0092C302.496 73.0092 303.136 73.3932 303.584 74.1612C304.096 74.9292 304.352 75.9852 304.352 77.3292C304.352 79.6332 303.808 81.6172 302.72 83.2812C300.928 86.0332 298.56 88.1772 295.616 89.7132C292.736 91.2492 289.28 92.0172 285.248 92.0172C279.104 92.0172 274.336 90.1932 270.944 86.5452C267.552 82.8332 265.855 77.8412 265.855 71.5692C265.855 67.1532 266.784 63.0572 268.64 59.2812C270.496 55.4412 273.056 52.4012 276.32 50.1612C279.648 47.9212 283.392 46.8012 287.552 46.8012C291.264 46.8012 294.24 47.9212 296.48 50.1612C298.72 52.3372 299.84 55.3132 299.84 59.0892C299.84 63.5052 298.24 67.3132 295.04 70.5132C291.904 73.6492 286.528 76.1452 278.912 78.0012C280.448 80.9452 283.04 82.4172 286.688 82.4172C289.312 82.4172 291.456 81.8092 293.12 80.5932C294.848 79.3772 296.832 77.3292 299.072 74.4492C299.84 73.4892 300.704 73.0092 301.664 73.0092ZM285.92 56.2092C283.552 56.2092 281.536 57.5852 279.872 60.3372C278.272 63.0892 277.472 66.4172 277.472 70.3212V70.5132C281.248 69.6172 284.224 68.2732 286.4 66.4812C288.576 64.6892 289.664 62.6092 289.664 60.2412C289.664 59.0252 289.312 58.0652 288.608 57.3612C287.968 56.5932 287.072 56.2092 285.92 56.2092Z" fill="#80FFDB"/>
<path d="M612.527 97.5455H589.103C581.103 97.5455 575.151 95.9455 571.247 92.7455C567.407 89.5455 565.487 84.6175 565.487 77.9615V48.1055C565.487 41.4495 567.407 36.5215 571.247 33.3215C575.151 30.0575 581.103 28.4255 589.103 28.4255H612.527C613.743 28.4255 614.607 28.7135 615.119 29.2895C615.695 29.8015 615.983 30.6655 615.983 31.8815V43.4975C615.983 44.7135 615.695 45.6095 615.119 46.1855C614.607 46.6975 613.743 46.9535 612.527 46.9535H593.231C591.247 46.9535 589.775 47.3695 588.815 48.2015C587.855 48.9695 587.375 50.1535 587.375 51.7535V74.6015C587.375 76.2015 587.855 77.3855 588.815 78.1535C589.775 78.8575 591.247 79.2095 593.231 79.2095H612.527C613.743 79.2095 614.607 79.4975 615.119 80.0735C615.695 80.5855 615.983 81.4495 615.983 82.6655V94.0895C615.983 95.3055 615.695 96.2015 615.119 96.7775C614.607 97.2895 613.743 97.5455 612.527 97.5455Z" fill="#4EA8DE"/>
</svg>
