<svg width="1226" height="199" viewBox="0 0 1226 199" fill="none" xmlns="http://www.w3.org/2000/svg">
<path d="M26.68 22.04L22.168 36.632H37.24L32.728 22.04C32.472 21.464 32.184 21.048 31.864 20.792C31.608 20.536 31.288 20.408 30.904 20.408H28.504C28.12 20.408 27.768 20.536 27.448 20.792C27.192 21.048 26.936 21.464 26.68 22.04ZM21.208 67.544C21.208 68.76 20.92 69.656 20.344 70.232C19.832 70.744 18.968 71 17.752 71H3.64C2.424 71 1.528 70.744 0.952 70.232C0.44 69.656 0.184 68.76 0.184 67.544V42.2C0.184 40.28 0.472 38.072 1.048 35.576C1.688 33.08 2.648 30.168 3.928 26.84L12.28 5.048C12.664 3.96 13.24 3.16 14.008 2.648C14.84 2.136 15.896 1.88 17.176 1.88H43C44.216 1.88 45.208 2.136 45.976 2.648C46.808 3.16 47.416 3.96 47.8 5.048L56.152 26.84C57.432 30.168 58.36 33.08 58.936 35.576C59.576 38.072 59.896 40.28 59.896 42.2V67.544C59.896 68.76 59.608 69.656 59.032 70.232C58.52 70.744 57.656 71 56.44 71H41.944C40.664 71 39.704 70.744 39.064 70.232C38.488 69.656 38.2 68.76 38.2 67.544V54.104H21.208V67.544ZM90.085 71H75.205C73.989 71 73.093 70.744 72.517 70.232C72.005 69.656 71.749 68.76 71.749 67.544V5.336C71.749 4.12 72.005 3.256 72.517 2.744C73.093 2.168 73.989 1.88 75.205 1.88H104.581C113.285 1.88 119.237 3.608 122.437 7.064C125.637 10.52 127.237 15.032 127.237 20.6V32.888C127.237 38.456 125.637 42.968 122.437 46.424C119.237 49.88 113.285 51.608 104.581 51.608H93.541V67.544C93.541 68.76 93.253 69.656 92.677 70.232C92.165 70.744 91.301 71 90.085 71ZM93.349 19.832V34.328H101.989C103.845 34.328 105.061 33.848 105.637 32.888C106.213 31.928 106.501 30.84 106.501 29.624V24.536C106.501 23.32 106.213 22.232 105.637 21.272C105.061 20.312 103.845 19.832 101.989 19.832H93.349ZM158.883 19.16V31.448H166.083C167.747 31.448 168.867 31.032 169.443 30.2C170.019 29.304 170.307 28.216 170.307 26.936V23.672C170.307 22.392 170.019 21.336 169.443 20.504C168.867 19.608 167.747 19.16 166.083 19.16H158.883ZM155.427 71H140.643C139.427 71 138.531 70.744 137.955 70.232C137.443 69.656 137.187 68.76 137.187 67.544V5.336C137.187 4.12 137.443 3.256 137.955 2.744C138.531 2.168 139.427 1.88 140.643 1.88H172.611C179.779 1.88 184.707 3.384 187.395 6.392C190.147 9.336 191.523 13.176 191.523 17.912V22.328C191.523 25.016 191.107 27.32 190.275 29.24C189.507 31.096 188.131 32.44 186.147 33.272C189.603 33.656 192.387 35.064 194.499 37.496C196.675 39.928 197.763 43.16 197.763 47.192V67.544C197.763 68.76 197.475 69.656 196.899 70.232C196.387 70.744 195.523 71 194.307 71H179.427C178.211 71 177.315 70.744 176.739 70.232C176.227 69.656 175.971 68.76 175.971 67.544V52.856C175.971 51.448 175.683 50.424 175.107 49.784C174.595 49.08 173.667 48.728 172.323 48.728H158.883V67.544C158.883 68.76 158.595 69.656 158.019 70.232C157.507 70.744 156.643 71 155.427 71ZM256.53 71H211.986C210.77 71 209.874 70.744 209.298 70.232C208.786 69.656 208.53 68.76 208.53 67.544V5.336C208.53 4.12 208.786 3.256 209.298 2.744C209.874 2.168 210.77 1.88 211.986 1.88H256.53C257.746 1.88 258.61 2.168 259.122 2.744C259.698 3.256 259.986 4.12 259.986 5.336V16.568C259.986 17.784 259.698 18.68 259.122 19.256C258.61 19.768 257.746 20.024 256.53 20.024H230.034V27.416H248.754C249.97 27.416 250.834 27.704 251.346 28.28C251.922 28.792 252.21 29.656 252.21 30.872V41.144C252.21 42.36 251.922 43.256 251.346 43.832C250.834 44.344 249.97 44.6 248.754 44.6H230.034V52.856H256.53C257.746 52.856 258.61 53.144 259.122 53.72C259.698 54.232 259.986 55.096 259.986 56.312V67.544C259.986 68.76 259.698 69.656 259.122 70.232C258.61 70.744 257.746 71 256.53 71ZM289.199 71H274.799C273.583 71 272.687 70.744 272.111 70.232C271.599 69.656 271.343 68.76 271.343 67.544V5.336C271.343 4.12 271.599 3.256 272.111 2.744C272.687 2.168 273.583 1.88 274.799 1.88H284.783C285.999 1.88 287.023 2.072 287.855 2.456C288.751 2.84 289.615 3.512 290.447 4.472L309.071 25.784V5.336C309.071 4.12 309.327 3.256 309.839 2.744C310.415 2.168 311.311 1.88 312.527 1.88H326.927C328.143 1.88 329.007 2.168 329.519 2.744C330.095 3.256 330.383 4.12 330.383 5.336V67.544C330.383 68.76 330.095 69.656 329.519 70.232C329.007 70.744 328.143 71 326.927 71H312.527C311.311 71 310.415 70.744 309.839 70.232C309.327 69.656 309.071 68.76 309.071 67.544V55.736L292.655 35.864V67.544C292.655 68.76 292.367 69.656 291.791 70.232C291.279 70.744 290.415 71 289.199 71ZM379.432 71H347.08C345.864 71 344.968 70.744 344.392 70.232C343.88 69.656 343.624 68.76 343.624 67.544V5.336C343.624 4.12 343.88 3.256 344.392 2.744C344.968 2.168 345.864 1.88 347.08 1.88H379.432C387.432 1.88 393.352 3.48 397.192 6.68C401.096 9.88 403.048 14.808 403.048 21.464V51.416C403.048 58.072 401.096 63 397.192 66.2C393.352 69.4 387.432 71 379.432 71ZM365.416 20.216V52.856H376.84C378.376 52.856 379.496 52.472 380.2 51.704C380.968 50.936 381.352 49.752 381.352 48.152V24.824C381.352 23.224 380.968 22.072 380.2 21.368C379.496 20.6 378.376 20.216 376.84 20.216H365.416ZM440.305 22.04L435.793 36.632H450.865L446.353 22.04C446.097 21.464 445.809 21.048 445.489 20.792C445.233 20.536 444.913 20.408 444.529 20.408H442.129C441.745 20.408 441.393 20.536 441.073 20.792C440.817 21.048 440.561 21.464 440.305 22.04ZM434.833 67.544C434.833 68.76 434.545 69.656 433.969 70.232C433.457 70.744 432.593 71 431.377 71H417.265C416.049 71 415.153 70.744 414.577 70.232C414.065 69.656 413.809 68.76 413.809 67.544V42.2C413.809 40.28 414.097 38.072 414.673 35.576C415.313 33.08 416.273 30.168 417.553 26.84L425.905 5.048C426.289 3.96 426.865 3.16 427.633 2.648C428.465 2.136 429.521 1.88 430.801 1.88H456.625C457.841 1.88 458.833 2.136 459.601 2.648C460.433 3.16 461.041 3.96 461.425 5.048L469.777 26.84C471.057 30.168 471.985 33.08 472.561 35.576C473.201 38.072 473.521 40.28 473.521 42.2V67.544C473.521 68.76 473.233 69.656 472.657 70.232C472.145 70.744 471.281 71 470.065 71H455.569C454.289 71 453.329 70.744 452.689 70.232C452.113 69.656 451.825 68.76 451.825 67.544V54.104H434.833V67.544ZM531.055 22.04L526.543 36.632H541.615L537.103 22.04C536.847 21.464 536.559 21.048 536.239 20.792C535.983 20.536 535.663 20.408 535.279 20.408H532.879C532.495 20.408 532.143 20.536 531.823 20.792C531.567 21.048 531.311 21.464 531.055 22.04ZM525.583 67.544C525.583 68.76 525.295 69.656 524.719 70.232C524.207 70.744 523.343 71 522.127 71H508.015C506.799 71 505.903 70.744 505.327 70.232C504.815 69.656 504.559 68.76 504.559 67.544V42.2C504.559 40.28 504.847 38.072 505.423 35.576C506.063 33.08 507.023 30.168 508.303 26.84L516.655 5.048C517.039 3.96 517.615 3.16 518.383 2.648C519.215 2.136 520.271 1.88 521.551 1.88H547.375C548.591 1.88 549.583 2.136 550.351 2.648C551.183 3.16 551.791 3.96 552.175 5.048L560.527 26.84C561.807 30.168 562.735 33.08 563.311 35.576C563.951 38.072 564.271 40.28 564.271 42.2V67.544C564.271 68.76 563.983 69.656 563.407 70.232C562.895 70.744 562.031 71 560.815 71H546.319C545.039 71 544.079 70.744 543.439 70.232C542.863 69.656 542.575 68.76 542.575 67.544V54.104H525.583V67.544ZM615.554 71H600.674C599.458 71 598.562 70.744 597.986 70.232C597.474 69.656 597.218 68.76 597.218 67.544V5.336C597.218 4.12 597.474 3.256 597.986 2.744C598.562 2.168 599.458 1.88 600.674 1.88H630.05C638.754 1.88 644.706 3.608 647.906 7.064C651.106 10.52 652.706 15.032 652.706 20.6V32.888C652.706 38.456 651.106 42.968 647.906 46.424C644.706 49.88 638.754 51.608 630.05 51.608H619.01V67.544C619.01 68.76 618.722 69.656 618.146 70.232C617.634 70.744 616.77 71 615.554 71ZM618.818 19.832V34.328H627.458C629.314 34.328 630.53 33.848 631.106 32.888C631.682 31.928 631.97 30.84 631.97 29.624V24.536C631.97 23.32 631.682 22.232 631.106 21.272C630.53 20.312 629.314 19.832 627.458 19.832H618.818ZM684.351 19.16V31.448H691.551C693.215 31.448 694.335 31.032 694.911 30.2C695.487 29.304 695.775 28.216 695.775 26.936V23.672C695.775 22.392 695.487 21.336 694.911 20.504C694.335 19.608 693.215 19.16 691.551 19.16H684.351ZM680.895 71H666.111C664.895 71 663.999 70.744 663.423 70.232C662.911 69.656 662.655 68.76 662.655 67.544V5.336C662.655 4.12 662.911 3.256 663.423 2.744C663.999 2.168 664.895 1.88 666.111 1.88H698.079C705.247 1.88 710.175 3.384 712.863 6.392C715.615 9.336 716.991 13.176 716.991 17.912V22.328C716.991 25.016 716.575 27.32 715.743 29.24C714.975 31.096 713.599 32.44 711.615 33.272C715.071 33.656 717.855 35.064 719.967 37.496C722.143 39.928 723.231 43.16 723.231 47.192V67.544C723.231 68.76 722.943 69.656 722.367 70.232C721.855 70.744 720.991 71 719.775 71H704.895C703.679 71 702.783 70.744 702.207 70.232C701.695 69.656 701.439 68.76 701.439 67.544V52.856C701.439 51.448 701.151 50.424 700.575 49.784C700.063 49.08 699.135 48.728 697.791 48.728H684.351V67.544C684.351 68.76 684.063 69.656 683.487 70.232C682.975 70.744 682.111 71 680.895 71ZM792.09 52.856C792.09 55.8 791.642 58.488 790.746 60.92C789.914 63.288 788.378 65.336 786.138 67.064C783.962 68.728 780.922 70.04 777.018 71C773.178 71.96 768.282 72.44 762.33 72.44C756.378 72.44 751.45 71.96 747.546 71C743.642 70.04 740.57 68.728 738.33 67.064C736.154 65.336 734.618 63.288 733.722 60.92C732.89 58.488 732.474 55.8 732.474 52.856V20.12C732.474 17.176 732.89 14.52 733.722 12.152C734.618 9.72 736.154 7.64 738.33 5.912C740.57 4.184 743.642 2.84 747.546 1.88C751.45 0.919998 756.378 0.439999 762.33 0.439999C768.282 0.439999 773.178 0.919998 777.018 1.88C780.922 2.84 783.962 4.184 786.138 5.912C788.378 7.64 789.914 9.72 790.746 12.152C791.642 14.52 792.09 17.176 792.09 20.12V52.856ZM754.266 49.4C754.266 50.68 754.746 51.768 755.706 52.664C756.666 53.496 758.874 53.912 762.33 53.912C765.786 53.912 767.994 53.496 768.954 52.664C769.914 51.768 770.394 50.68 770.394 49.4V23.576C770.394 22.36 769.914 21.336 768.954 20.504C767.994 19.608 765.786 19.16 762.33 19.16C758.874 19.16 756.666 19.608 755.706 20.504C754.746 21.336 754.266 22.36 754.266 23.576V49.4ZM857.112 71H826.872C818.872 71 812.92 69.4 809.016 66.2C805.176 63 803.256 58.072 803.256 51.416V21.464C803.256 14.808 805.176 9.88 809.016 6.68C812.92 3.48 818.872 1.88 826.872 1.88H850.872C852.088 1.88 852.952 2.168 853.464 2.744C854.04 3.256 854.328 4.12 854.328 5.336V16.952C854.328 18.168 854.04 19.064 853.464 19.64C852.952 20.152 852.088 20.408 850.872 20.408H830.904C828.92 20.408 827.448 20.824 826.488 21.656C825.528 22.424 825.048 23.608 825.048 25.208V48.152C825.048 49.752 825.4 50.936 826.104 51.704C826.872 52.472 827.992 52.856 829.464 52.856H838.776V37.88C838.776 36.664 839.032 35.8 839.544 35.288C840.12 34.712 841.016 34.424 842.232 34.424H857.112C858.328 34.424 859.192 34.712 859.704 35.288C860.28 35.8 860.568 36.664 860.568 37.88V67.544C860.568 68.76 860.28 69.656 859.704 70.232C859.192 70.744 858.328 71 857.112 71ZM893.976 19.16V31.448H901.176C902.84 31.448 903.96 31.032 904.536 30.2C905.112 29.304 905.4 28.216 905.4 26.936V23.672C905.4 22.392 905.112 21.336 904.536 20.504C903.96 19.608 902.84 19.16 901.176 19.16H893.976ZM890.52 71H875.736C874.52 71 873.624 70.744 873.048 70.232C872.536 69.656 872.28 68.76 872.28 67.544V5.336C872.28 4.12 872.536 3.256 873.048 2.744C873.624 2.168 874.52 1.88 875.736 1.88H907.704C914.872 1.88 919.8 3.384 922.488 6.392C925.24 9.336 926.616 13.176 926.616 17.912V22.328C926.616 25.016 926.2 27.32 925.368 29.24C924.6 31.096 923.224 32.44 921.24 33.272C924.696 33.656 927.48 35.064 929.592 37.496C931.768 39.928 932.856 43.16 932.856 47.192V67.544C932.856 68.76 932.568 69.656 931.992 70.232C931.48 70.744 930.616 71 929.4 71H914.52C913.304 71 912.408 70.744 911.832 70.232C911.32 69.656 911.064 68.76 911.064 67.544V52.856C911.064 51.448 910.776 50.424 910.2 49.784C909.688 49.08 908.76 48.728 907.416 48.728H893.976V67.544C893.976 68.76 893.688 69.656 893.112 70.232C892.6 70.744 891.736 71 890.52 71ZM968.68 22.04L964.168 36.632H979.24L974.728 22.04C974.472 21.464 974.184 21.048 973.864 20.792C973.608 20.536 973.288 20.408 972.904 20.408H970.504C970.12 20.408 969.768 20.536 969.448 20.792C969.192 21.048 968.936 21.464 968.68 22.04ZM963.208 67.544C963.208 68.76 962.92 69.656 962.344 70.232C961.832 70.744 960.968 71 959.752 71H945.64C944.424 71 943.528 70.744 942.952 70.232C942.44 69.656 942.184 68.76 942.184 67.544V42.2C942.184 40.28 942.472 38.072 943.048 35.576C943.688 33.08 944.648 30.168 945.928 26.84L954.28 5.048C954.664 3.96 955.24 3.16 956.008 2.648C956.84 2.136 957.896 1.88 959.176 1.88H985C986.216 1.88 987.208 2.136 987.976 2.648C988.808 3.16 989.416 3.96 989.8 5.048L998.152 26.84C999.432 30.168 1000.36 33.08 1000.94 35.576C1001.58 38.072 1001.9 40.28 1001.9 42.2V67.544C1001.9 68.76 1001.61 69.656 1001.03 70.232C1000.52 70.744 999.656 71 998.44 71H983.944C982.664 71 981.704 70.744 981.064 70.232C980.488 69.656 980.2 68.76 980.2 67.544V54.104H963.208V67.544ZM1031.51 71H1017.21C1015.99 71 1015.09 70.744 1014.52 70.232C1014.01 69.656 1013.75 68.76 1013.75 67.544V5.336C1013.75 4.12 1014.01 3.256 1014.52 2.744C1015.09 2.168 1015.99 1.88 1017.21 1.88H1032.66C1033.69 1.88 1034.52 2.104 1035.16 2.55199C1035.86 3 1036.5 3.736 1037.08 4.75999L1045.72 20.408C1046.04 20.984 1046.29 21.4 1046.49 21.656C1046.74 21.912 1047.06 22.04 1047.45 22.04H1048.31C1048.69 22.04 1048.98 21.912 1049.17 21.656C1049.43 21.4 1049.72 20.984 1050.04 20.408L1058.58 4.75999C1059.16 3.736 1059.77 3 1060.41 2.55199C1061.11 2.104 1061.97 1.88 1063 1.88H1078.55C1079.77 1.88 1080.63 2.168 1081.14 2.744C1081.72 3.256 1082.01 4.12 1082.01 5.336V67.544C1082.01 68.76 1081.72 69.656 1081.14 70.232C1080.63 70.744 1079.77 71 1078.55 71H1063.77C1062.55 71 1061.65 70.744 1061.08 70.232C1060.57 69.656 1060.31 68.76 1060.31 67.544V33.752L1054.65 44.216C1054.07 45.304 1053.37 46.104 1052.53 46.616C1051.77 47.064 1050.77 47.288 1049.56 47.288H1045.72C1044.5 47.288 1043.48 47.064 1042.65 46.616C1041.88 46.104 1041.21 45.304 1040.63 44.216L1034.97 33.752V67.544C1034.97 68.76 1034.68 69.656 1034.1 70.232C1033.59 70.744 1032.73 71 1031.51 71ZM1120.27 22.04L1115.76 36.632H1130.83L1126.32 22.04C1126.07 21.464 1125.78 21.048 1125.46 20.792C1125.2 20.536 1124.88 20.408 1124.5 20.408H1122.1C1121.71 20.408 1121.36 20.536 1121.04 20.792C1120.79 21.048 1120.53 21.464 1120.27 22.04ZM1114.8 67.544C1114.8 68.76 1114.51 69.656 1113.94 70.232C1113.43 70.744 1112.56 71 1111.35 71H1097.23C1096.02 71 1095.12 70.744 1094.55 70.232C1094.03 69.656 1093.78 68.76 1093.78 67.544V42.2C1093.78 40.28 1094.07 38.072 1094.64 35.576C1095.28 33.08 1096.24 30.168 1097.52 26.84L1105.87 5.048C1106.26 3.96 1106.83 3.16 1107.6 2.648C1108.43 2.136 1109.49 1.88 1110.77 1.88H1136.59C1137.81 1.88 1138.8 2.136 1139.57 2.648C1140.4 3.16 1141.01 3.96 1141.39 5.048L1149.75 26.84C1151.03 30.168 1151.95 33.08 1152.53 35.576C1153.17 38.072 1153.49 40.28 1153.49 42.2V67.544C1153.49 68.76 1153.2 69.656 1152.63 70.232C1152.11 70.744 1151.25 71 1150.03 71H1135.54C1134.26 71 1133.3 70.744 1132.66 70.232C1132.08 69.656 1131.79 68.76 1131.79 67.544V54.104H1114.8V67.544ZM1187.04 19.16V31.448H1194.24C1195.9 31.448 1197.02 31.032 1197.6 30.2C1198.17 29.304 1198.46 28.216 1198.46 26.936V23.672C1198.46 22.392 1198.17 21.336 1197.6 20.504C1197.02 19.608 1195.9 19.16 1194.24 19.16H1187.04ZM1183.58 71H1168.8C1167.58 71 1166.69 70.744 1166.11 70.232C1165.6 69.656 1165.34 68.76 1165.34 67.544V5.336C1165.34 4.12 1165.6 3.256 1166.11 2.744C1166.69 2.168 1167.58 1.88 1168.8 1.88H1200.77C1207.93 1.88 1212.86 3.384 1215.55 6.392C1218.3 9.336 1219.68 13.176 1219.68 17.912V22.328C1219.68 25.016 1219.26 27.32 1218.43 29.24C1217.66 31.096 1216.29 32.44 1214.3 33.272C1217.76 33.656 1220.54 35.064 1222.65 37.496C1224.83 39.928 1225.92 43.16 1225.92 47.192V67.544C1225.92 68.76 1225.63 69.656 1225.05 70.232C1224.54 70.744 1223.68 71 1222.46 71H1207.58C1206.37 71 1205.47 70.744 1204.89 70.232C1204.38 69.656 1204.13 68.76 1204.13 67.544V52.856C1204.13 51.448 1203.84 50.424 1203.26 49.784C1202.75 49.08 1201.82 48.728 1200.48 48.728H1187.04V67.544C1187.04 68.76 1186.75 69.656 1186.17 70.232C1185.66 70.744 1184.8 71 1183.58 71ZM47.608 186H24.184C16.184 186 10.232 184.4 6.328 181.2C2.488 178 0.568 173.072 0.568 166.416V136.56C0.568 129.904 2.488 124.976 6.328 121.776C10.232 118.512 16.184 116.88 24.184 116.88H47.608C48.824 116.88 49.688 117.168 50.2 117.744C50.776 118.256 51.064 119.12 51.064 120.336V131.952C51.064 133.168 50.776 134.064 50.2 134.64C49.688 135.152 48.824 135.408 47.608 135.408H28.312C26.328 135.408 24.856 135.824 23.896 136.656C22.936 137.424 22.456 138.608 22.456 140.208V163.056C22.456 164.656 22.936 165.84 23.896 166.608C24.856 167.312 26.328 167.664 28.312 167.664H47.608C48.824 167.664 49.688 167.952 50.2 168.528C50.776 169.04 51.064 169.904 51.064 171.12V182.544C51.064 183.76 50.776 184.656 50.2 185.232C49.688 185.744 48.824 186 47.608 186ZM119.997 167.856C119.997 170.8 119.549 173.488 118.653 175.92C117.821 178.288 116.285 180.336 114.045 182.064C111.869 183.728 108.829 185.04 104.925 186C101.085 186.96 96.1885 187.44 90.2365 187.44C84.2845 187.44 79.3565 186.96 75.4525 186C71.5485 185.04 68.4765 183.728 66.2365 182.064C64.0605 180.336 62.5245 178.288 61.6285 175.92C60.7965 173.488 60.3805 170.8 60.3805 167.856V135.12C60.3805 132.176 60.7965 129.52 61.6285 127.152C62.5245 124.72 64.0605 122.64 66.2365 120.912C68.4765 119.184 71.5485 117.84 75.4525 116.88C79.3565 115.92 84.2845 115.44 90.2365 115.44C96.1885 115.44 101.085 115.92 104.925 116.88C108.829 117.84 111.869 119.184 114.045 120.912C116.285 122.64 117.821 124.72 118.653 127.152C119.549 129.52 119.997 132.176 119.997 135.12V167.856ZM82.1725 164.4C82.1725 165.68 82.6525 166.768 83.6125 167.664C84.5725 168.496 86.7805 168.912 90.2365 168.912C93.6925 168.912 95.9005 168.496 96.8605 167.664C97.8205 166.768 98.3005 165.68 98.3005 164.4V138.576C98.3005 137.36 97.8205 136.336 96.8605 135.504C95.9005 134.608 93.6925 134.16 90.2365 134.16C86.7805 134.16 84.5725 134.608 83.6125 135.504C82.6525 136.336 82.1725 137.36 82.1725 138.576V164.4ZM149.978 186H135.674C134.458 186 133.562 185.744 132.986 185.232C132.474 184.656 132.218 183.76 132.218 182.544V120.336C132.218 119.12 132.474 118.256 132.986 117.744C133.562 117.168 134.458 116.88 135.674 116.88H151.13C152.154 116.88 152.986 117.104 153.626 117.552C154.33 118 154.97 118.736 155.546 119.76L164.186 135.408C164.506 135.984 164.762 136.4 164.954 136.656C165.21 136.912 165.53 137.04 165.914 137.04H166.778C167.162 137.04 167.45 136.912 167.642 136.656C167.898 136.4 168.186 135.984 168.506 135.408L177.05 119.76C177.626 118.736 178.234 118 178.874 117.552C179.578 117.104 180.442 116.88 181.466 116.88H197.018C198.234 116.88 199.098 117.168 199.61 117.744C200.186 118.256 200.474 119.12 200.474 120.336V182.544C200.474 183.76 200.186 184.656 199.61 185.232C199.098 185.744 198.234 186 197.018 186H182.234C181.018 186 180.122 185.744 179.546 185.232C179.034 184.656 178.778 183.76 178.778 182.544V148.752L173.114 159.216C172.538 160.304 171.834 161.104 171.002 161.616C170.234 162.064 169.242 162.288 168.026 162.288H164.186C162.97 162.288 161.946 162.064 161.114 161.616C160.346 161.104 159.674 160.304 159.098 159.216L153.434 148.752V182.544C153.434 183.76 153.146 184.656 152.57 185.232C152.058 185.744 151.194 186 149.978 186ZM261.687 186H217.143C215.927 186 215.031 185.744 214.455 185.232C213.943 184.656 213.687 183.76 213.687 182.544V120.336C213.687 119.12 213.943 118.256 214.455 117.744C215.031 117.168 215.927 116.88 217.143 116.88H261.687C262.903 116.88 263.767 117.168 264.279 117.744C264.855 118.256 265.143 119.12 265.143 120.336V131.568C265.143 132.784 264.855 133.68 264.279 134.256C263.767 134.768 262.903 135.024 261.687 135.024H235.191V142.416H253.911C255.127 142.416 255.991 142.704 256.503 143.28C257.079 143.792 257.367 144.656 257.367 145.872V156.144C257.367 157.36 257.079 158.256 256.503 158.832C255.991 159.344 255.127 159.6 253.911 159.6H235.191V167.856H261.687C262.903 167.856 263.767 168.144 264.279 168.72C264.855 169.232 265.143 170.096 265.143 171.312V182.544C265.143 183.76 264.855 184.656 264.279 185.232C263.767 185.744 262.903 186 261.687 186ZM311.166 195.216C310.846 196.24 310.334 196.976 309.63 197.424C308.926 197.872 307.966 198.096 306.75 198.096H294.654C293.054 198.096 292.062 197.744 291.678 197.04C291.294 196.336 291.326 195.408 291.774 194.256L294.846 185.904C288.126 185.456 283.134 183.632 279.87 180.432C276.606 177.232 274.974 172.56 274.974 166.416V136.56C274.974 129.904 276.894 124.976 280.734 121.776C284.638 118.512 290.59 116.88 298.59 116.88H322.014C323.23 116.88 324.094 117.168 324.606 117.744C325.182 118.256 325.47 119.12 325.47 120.336V131.952C325.47 133.168 325.182 134.064 324.606 134.64C324.094 135.152 323.23 135.408 322.014 135.408H302.718C300.734 135.408 299.262 135.824 298.302 136.656C297.342 137.424 296.862 138.608 296.862 140.208V163.056C296.862 164.656 297.342 165.84 298.302 166.608C299.262 167.312 300.734 167.664 302.718 167.664H322.014C323.23 167.664 324.094 167.952 324.606 168.528C325.182 169.04 325.47 169.904 325.47 171.12V182.544C325.47 183.76 325.182 184.656 324.606 185.232C324.094 185.744 323.23 186 322.014 186H314.43L311.166 195.216ZM361.368 137.04L356.856 151.632H371.928L367.416 137.04C367.16 136.464 366.872 136.048 366.552 135.792C366.296 135.536 365.976 135.408 365.592 135.408H363.192C362.808 135.408 362.456 135.536 362.136 135.792C361.88 136.048 361.624 136.464 361.368 137.04ZM355.896 182.544C355.896 183.76 355.608 184.656 355.031 185.232C354.52 185.744 353.656 186 352.44 186H338.328C337.112 186 336.216 185.744 335.64 185.232C335.128 184.656 334.872 183.76 334.872 182.544V157.2C334.872 155.28 335.16 153.072 335.736 150.576C336.376 148.08 337.336 145.168 338.616 141.84L346.968 120.048C347.352 118.96 347.928 118.16 348.696 117.648C349.528 117.136 350.584 116.88 351.864 116.88H377.688C378.904 116.88 379.896 117.136 380.664 117.648C381.496 118.16 382.104 118.96 382.488 120.048L390.84 141.84C392.12 145.168 393.048 148.08 393.624 150.576C394.264 153.072 394.584 155.28 394.584 157.2V182.544C394.584 183.76 394.296 184.656 393.72 185.232C393.208 185.744 392.344 186 391.128 186H376.632C375.352 186 374.392 185.744 373.752 185.232C373.176 184.656 372.888 183.76 372.888 182.544V169.104H355.896V182.544ZM424.293 186H409.893C408.677 186 407.781 185.744 407.205 185.232C406.693 184.656 406.437 183.76 406.437 182.544V120.336C406.437 119.12 406.693 118.256 407.205 117.744C407.781 117.168 408.677 116.88 409.893 116.88H419.877C421.093 116.88 422.117 117.072 422.949 117.456C423.845 117.84 424.709 118.512 425.541 119.472L444.165 140.784V120.336C444.165 119.12 444.421 118.256 444.933 117.744C445.509 117.168 446.405 116.88 447.621 116.88H462.021C463.237 116.88 464.101 117.168 464.613 117.744C465.189 118.256 465.477 119.12 465.477 120.336V182.544C465.477 183.76 465.189 184.656 464.613 185.232C464.101 185.744 463.237 186 462.021 186H447.621C446.405 186 445.509 185.744 444.933 185.232C444.421 184.656 444.165 183.76 444.165 182.544V170.736L427.749 150.864V182.544C427.749 183.76 427.461 184.656 426.885 185.232C426.373 185.744 425.509 186 424.293 186ZM514.526 186H482.174C480.958 186 480.062 185.744 479.486 185.232C478.974 184.656 478.718 183.76 478.718 182.544V120.336C478.718 119.12 478.974 118.256 479.486 117.744C480.062 117.168 480.958 116.88 482.174 116.88H514.526C522.526 116.88 528.446 118.48 532.286 121.68C536.19 124.88 538.142 129.808 538.142 136.464V166.416C538.142 173.072 536.19 178 532.286 181.2C528.446 184.4 522.526 186 514.526 186ZM500.51 135.216V167.856H511.934C513.47 167.856 514.59 167.472 515.294 166.704C516.062 165.936 516.446 164.752 516.446 163.152V139.824C516.446 138.224 516.062 137.072 515.294 136.368C514.59 135.6 513.47 135.216 511.934 135.216H500.51ZM608.903 167.856C608.903 170.8 608.455 173.488 607.559 175.92C606.727 178.288 605.191 180.336 602.951 182.064C600.775 183.728 597.735 185.04 593.831 186C589.991 186.96 585.095 187.44 579.143 187.44C573.191 187.44 568.263 186.96 564.359 186C560.455 185.04 557.383 183.728 555.143 182.064C552.967 180.336 551.431 178.288 550.535 175.92C549.703 173.488 549.287 170.8 549.287 167.856V135.12C549.287 132.176 549.703 129.52 550.535 127.152C551.431 124.72 552.967 122.64 555.143 120.912C557.383 119.184 560.455 117.84 564.359 116.88C568.263 115.92 573.191 115.44 579.143 115.44C585.095 115.44 589.991 115.92 593.831 116.88C597.735 117.84 600.775 119.184 602.951 120.912C605.191 122.64 606.727 124.72 607.559 127.152C608.455 129.52 608.903 132.176 608.903 135.12V167.856ZM571.079 164.4C571.079 165.68 571.559 166.768 572.519 167.664C573.479 168.496 575.687 168.912 579.143 168.912C582.599 168.912 584.807 168.496 585.767 167.664C586.727 166.768 587.207 165.68 587.207 164.4V138.576C587.207 137.36 586.727 136.336 585.767 135.504C584.807 134.608 582.599 134.16 579.143 134.16C575.687 134.16 573.479 134.608 572.519 135.504C571.559 136.336 571.079 137.36 571.079 138.576V164.4ZM678.495 186H646.143C644.927 186 644.031 185.744 643.455 185.232C642.943 184.656 642.687 183.76 642.687 182.544V120.336C642.687 119.12 642.943 118.256 643.455 117.744C644.031 117.168 644.927 116.88 646.143 116.88H678.495C686.495 116.88 692.415 118.48 696.255 121.68C700.159 124.88 702.111 129.808 702.111 136.464V166.416C702.111 173.072 700.159 178 696.255 181.2C692.415 184.4 686.495 186 678.495 186ZM664.479 135.216V167.856H675.903C677.439 167.856 678.559 167.472 679.263 166.704C680.031 165.936 680.415 164.752 680.415 163.152V139.824C680.415 138.224 680.031 137.072 679.263 136.368C678.559 135.6 677.439 135.216 675.903 135.216H664.479ZM772.872 167.856C772.872 170.8 772.424 173.488 771.528 175.92C770.696 178.288 769.16 180.336 766.92 182.064C764.744 183.728 761.704 185.04 757.8 186C753.96 186.96 749.064 187.44 743.112 187.44C737.16 187.44 732.232 186.96 728.328 186C724.424 185.04 721.352 183.728 719.112 182.064C716.936 180.336 715.4 178.288 714.504 175.92C713.672 173.488 713.256 170.8 713.256 167.856V135.12C713.256 132.176 713.672 129.52 714.504 127.152C715.4 124.72 716.936 122.64 719.112 120.912C721.352 119.184 724.424 117.84 728.328 116.88C732.232 115.92 737.16 115.44 743.112 115.44C749.064 115.44 753.96 115.92 757.8 116.88C761.704 117.84 764.744 119.184 766.92 120.912C769.16 122.64 770.696 124.72 771.528 127.152C772.424 129.52 772.872 132.176 772.872 135.12V167.856ZM735.048 164.4C735.048 165.68 735.528 166.768 736.488 167.664C737.448 168.496 739.656 168.912 743.112 168.912C746.568 168.912 748.776 168.496 749.736 167.664C750.696 166.768 751.176 165.68 751.176 164.4V138.576C751.176 137.36 750.696 136.336 749.736 135.504C748.776 134.608 746.568 134.16 743.112 134.16C739.656 134.16 737.448 134.608 736.488 135.504C735.528 136.336 735.048 137.36 735.048 138.576V164.4ZM855.519 186H807.903C806.687 186 805.791 185.744 805.215 185.232C804.703 184.656 804.447 183.76 804.447 182.544V169.68C804.447 168.464 804.639 167.408 805.023 166.512C805.407 165.552 806.015 164.624 806.847 163.728L830.175 135.408H809.631C808.415 135.408 807.519 135.152 806.943 134.64C806.431 134.064 806.175 133.168 806.175 131.952V120.336C806.175 119.12 806.431 118.256 806.943 117.744C807.519 117.168 808.415 116.88 809.631 116.88H853.791C855.007 116.88 855.871 117.168 856.383 117.744C856.959 118.256 857.247 119.12 857.247 120.336V134.64C857.247 135.92 857.055 137.04 856.671 138C856.287 138.896 855.679 139.792 854.847 140.688L832.575 167.664H855.519C856.735 167.664 857.599 167.952 858.111 168.528C858.687 169.04 858.975 169.904 858.975 171.12V182.544C858.975 183.76 858.687 184.656 858.111 185.232C857.599 185.744 856.735 186 855.519 186ZM918.03 186H873.486C872.27 186 871.374 185.744 870.798 185.232C870.286 184.656 870.03 183.76 870.03 182.544V120.336C870.03 119.12 870.286 118.256 870.798 117.744C871.374 117.168 872.27 116.88 873.486 116.88H918.03C919.246 116.88 920.11 117.168 920.622 117.744C921.198 118.256 921.486 119.12 921.486 120.336V131.568C921.486 132.784 921.198 133.68 920.622 134.256C920.11 134.768 919.246 135.024 918.03 135.024H891.534V142.416H910.254C911.47 142.416 912.334 142.704 912.846 143.28C913.422 143.792 913.71 144.656 913.71 145.872V156.144C913.71 157.36 913.422 158.256 912.846 158.832C912.334 159.344 911.47 159.6 910.254 159.6H891.534V167.856H918.03C919.246 167.856 920.11 168.144 920.622 168.72C921.198 169.232 921.486 170.096 921.486 171.312V182.544C921.486 183.76 921.198 184.656 920.622 185.232C920.11 185.744 919.246 186 918.03 186ZM954.539 134.16V146.448H961.739C963.403 146.448 964.523 146.032 965.099 145.2C965.675 144.304 965.963 143.216 965.963 141.936V138.672C965.963 137.392 965.675 136.336 965.099 135.504C964.523 134.608 963.403 134.16 961.739 134.16H954.539ZM951.083 186H936.299C935.083 186 934.187 185.744 933.611 185.232C933.099 184.656 932.843 183.76 932.843 182.544V120.336C932.843 119.12 933.099 118.256 933.611 117.744C934.187 117.168 935.083 116.88 936.299 116.88H968.267C975.435 116.88 980.363 118.384 983.051 121.392C985.803 124.336 987.179 128.176 987.179 132.912V137.328C987.179 140.016 986.763 142.32 985.931 144.24C985.163 146.096 983.787 147.44 981.803 148.272C985.259 148.656 988.043 150.064 990.155 152.496C992.331 154.928 993.419 158.16 993.419 162.192V182.544C993.419 183.76 993.131 184.656 992.555 185.232C992.043 185.744 991.179 186 989.963 186H975.083C973.867 186 972.971 185.744 972.395 185.232C971.883 184.656 971.627 183.76 971.627 182.544V167.856C971.627 166.448 971.339 165.424 970.763 164.784C970.251 164.08 969.323 163.728 967.979 163.728H954.539V182.544C954.539 183.76 954.251 184.656 953.675 185.232C953.163 185.744 952.299 186 951.083 186ZM1062.28 167.856C1062.28 170.8 1061.83 173.488 1060.93 175.92C1060.1 178.288 1058.57 180.336 1056.33 182.064C1054.15 183.728 1051.11 185.04 1047.21 186C1043.37 186.96 1038.47 187.44 1032.52 187.44C1026.57 187.44 1021.64 186.96 1017.73 186C1013.83 185.04 1010.76 183.728 1008.52 182.064C1006.34 180.336 1004.81 178.288 1003.91 175.92C1003.08 173.488 1002.66 170.8 1002.66 167.856V135.12C1002.66 132.176 1003.08 129.52 1003.91 127.152C1004.81 124.72 1006.34 122.64 1008.52 120.912C1010.76 119.184 1013.83 117.84 1017.73 116.88C1021.64 115.92 1026.57 115.44 1032.52 115.44C1038.47 115.44 1043.37 115.92 1047.21 116.88C1051.11 117.84 1054.15 119.184 1056.33 120.912C1058.57 122.64 1060.1 124.72 1060.93 127.152C1061.83 129.52 1062.28 132.176 1062.28 135.12V167.856ZM1024.45 164.4C1024.45 165.68 1024.93 166.768 1025.89 167.664C1026.85 168.496 1029.06 168.912 1032.52 168.912C1035.97 168.912 1038.18 168.496 1039.14 167.664C1040.1 166.768 1040.58 165.68 1040.58 164.4V138.576C1040.58 137.36 1040.1 136.336 1039.14 135.504C1038.18 134.608 1035.97 134.16 1032.52 134.16C1029.06 134.16 1026.85 134.608 1025.89 135.504C1024.93 136.336 1024.45 137.36 1024.45 138.576V164.4Z" fill="white"/>
</svg>
